<?xml version="1.0" encoding="UTF-8"?>
<svg version="1.1" viewBox="0 0 800 800" width="200" height="200" xmlns="http://www.w3.org/2000/svg">
<path transform="translate(624,330)" d="m0 0h25l29 4 18 6 13 7 11 10 8 7 10 9 10 10 7 8 14 14 2 5-10-5-15-8-24-8-26-5-17-2 4 6v4l-30-5-33-3h-13l-44 15-30 8-31 6-22 2h-24l-19-2-17-5-12-6-5-2-21-2-1-3 10-3 26-5 26-7 53-17 66-22 21-5 30-5z" fill="#FE5303"/>
<path transform="translate(359,312)" d="m0 0h11l2 1-2 4-17 10-17 11-19 12-1 2 18 2 4 5 1 4 15-7 15-4 6-1h18l16 4 14 7 11 9 6 7-3 2-33-7-21-5-3-1h-20l-17 4-19 9-19 10-11 4-7 1-1-5 16-5 6-5 1-7-4-10-1-2h-4l-7 9-10 9-12 8-11 4h-7l-8-4-1-2 7-15 3-6 7-6 38-19 2-3-54 6-81 8-22 3-4 2-1 16-4 4h-16l-28-6-48-12-5-1h-8l-6 5 1 5 7 11 10 13 12 14 12 13 11 12 29 31 11 12 10 7 10 3h12l10-4 22-14 19-14 8-8 14-11 16-8 8-2h16l21 5 13 2 25 1h6v4l-7 2-7 3-16 3h-10l-19-3h-20l-12 5-10 7-12 11-11 11-8 7-16 12-12 6-3 1h-16l-14-5-18-12-11-9-13-12-10-9-12-12-4-3v-2l-4-2-12-12v-2h-2l-7-8-11-12-11-15-5-10 3-10h-4l1-6 10-6 8-3h9l16 4 43 12 31 6-2-16 4-8 6-4 15-4 87-12 70-9 37-4z" fill="#FE7202"/>
<path transform="translate(589,345)" d="m0 0 14 1 16 3 21 8 15 8 15 10 9 7 4 6v4l-30-5-33-3h-13l-3 1-24 1-13 2h-6l-1-4 7-8 8-8 9-7 1-2h2l-1-3-7 1-16 6-16 8-16 9-10 6-11 7-19 3-23 5-5-1 1-4 5-4 15-8 7-3 19-10 21-10 23-9 15-4 10-2z" fill="#00980B"/>
<path transform="translate(581,355)" d="m0 0h5l1 4h-2l-2 4-11 9-10 10-1 5 11-1 8-1h21l-3 2-35 12-30 8-31 6-22 2h-24l-19-2-17-5-12-6 1-2 10-2 21-6 27-8 15-5 8-1 1 4-16 8-9 5-2 2v3l8-1 23-5 15-2 13-8 15-9 20-11z" fill="#FB508B"/>
<path transform="translate(650,348)" d="m0 0h24l17 2 10 2 11 1 5 1 12 11 8 7 11 11 7 8 14 14 2 5-10-5-15-8-24-8-26-5-20-3-10-8-20-12-11-5v-5l2-2z" fill="#FB508D"/>
<path transform="translate(389,380)" d="m0 0h12v2l-12 5-23 11v2l15 6 2 1v3l-15 6-17 4-12 1-36-6-21-6-2-1 1-3 19-3 18-3 16-5 19-7 21-5z" fill="#00980B"/>
<path transform="translate(190,352)" d="m0 0h35l2 4-7 5-23 8-16 7-11 8-6 7-3 5-12-1-4-5-2-5v-9l4-10 9-8 11-4z" fill="#00970A"/>
<path transform="translate(581,355)" d="m0 0h5l1 4h-2l-2 4-11 9-10 10-1 5 11-1 8-1h21l-3 2-35 12-19 5-4-5-2-1h-21l-6 1-2-1-1 2-6-2v-2l-7-1v-1l15-2 13-8 15-9 20-11z" fill="#FF7202"/>
<path transform="translate(392,423)" d="m0 0h9l19 3 15 3h27l10-2 9-2-2 4-19 11-13 5-9 2h-14l-10-2-19-9-10-2h-19l-19 1 4-3 11-4 14-3z" fill="#FB508E"/>
<path transform="translate(323,429)" d="m0 0 5 1-1 3-7 2-7 3-16 3h-10l-19-3h-20l-12 5-10 7-12 11-11 11-8 7-16 12-12 6-3 1h-16l-2-2 18-6 16-8 14-11 27-27 12-7 10-4 5-1h17l16 1h29l12-3z" fill="#00980B"/>
<path transform="translate(287,457)" d="m0 0h14l6 5v6l-7 7 1 6 3 4 3 1 2-5 9-17 4-6 7-1 2 3 3 22 1 5-1 1h-5l-3-6h-9l-7 6h-12l-3-5-4-6-6-2-2 13h-6v-7l3-16 4-6zm2 5-1 1v6l3 2h5l4-4-1-4-1-1zm35 4-4 4-1 5 1 1h6l1-1v-6z" fill="#FB508E"/>
<path transform="translate(218,358)" d="m0 0h5l-3 3-23 8-16 7-11 8-6 7-3 5-6-1v-8l3-8 4-5 11-7 9-3z" fill="#FF5703"/>
<path transform="translate(475,456)" d="m0 0 10 1 5 3 2 4-1 5-5 5-2 3 4 6v5h-5l-6-10-6-2-3 10-2 2h-5l1-6 3-16 2-7 2-2zm-1 6-2 2v5l3 2h6l3-4-1-4-1-1z" fill="#FB508E"/>
<path transform="translate(346,457)" d="m0 0h5l5 11 2 6 2-2 4-14 5-1-1 12-4 18-1 1h-5l-3-5-5-13-1 1-3 14-3 3h-3l-1-4 3-15 3-11z" fill="#FB508E"/>
<path transform="translate(575,456)" d="m0 0h11l1 1v6l-2 1-10-1-5 2v3h12l2 1v5l-1 1h-13l-2 1v5l2 1h13l1 5-1 1h-23l-1-1 1-11 4-16 2-3z" fill="#FB508E"/>
<path transform="translate(542,456)" d="m0 0 5 1-1 6h-13l-4 1-1 5h15l1 4-1 2-16 1v5l2 1h13l1 5-1 1h-23l-1-4 4-20 3-7z" fill="#FB508E"/>
<path transform="translate(665,457)" d="m0 0 5 1 5 12 2 5h2l1-11 2-6 5-1 1 1-1 10-3 9-2 10-5 1-3-4-5-12-2-1-2 10-2 6-1 1h-5l2-10 5-20z" fill="#FB508E"/>
<path transform="translate(443,456)" d="m0 0 9 1 7 6 1 8-3 9-6 7-6 2-9-1-6-7-1-2v-7l5-10 6-5zm0 6-5 5-3 5 1 8 4 3h6l5-5 2-4v-7l-4-5z" fill="#FB508E"/>
<path transform="translate(601,456)" d="m0 0 8 1 5 4 1 6h-4l-5-4h-6l1 4 10 6 1 1v8l-5 6-9 1-7-3-3-4v-5l4-1 4 4v2h9l1-4-13-7-1-1v-7l5-6z" fill="#FB508E"/>
<path transform="translate(380,457)" d="m0 0h11l4 2 2 4-1 4-8-4h-6v4l11 6 3 4-2 6-5 5-2 1h-7l-5-2-4-5v-5h4l4 5 8 1v-7l-6-2-6-4v-7l2-4z" fill="#FB508E"/>
<path transform="translate(705,457)" d="m0 0h5l2 5 4 25-1 1h-6l-3-6h-9l-4 5-6 1 2-6 10-18 3-5zm-1 9-4 6v4h7l1-1-1-9z" fill="#FB508E"/>
<path transform="translate(413,456)" d="m0 0 8 1 5 3 2 6-5 8-4 2-10 1-4 10-5 1-1-4 5-24 3-3zm-1 6-3 2-1 4 1 3h9l2-3-1-5-1-1z" fill="#FB508E"/>
<path transform="translate(632,456)" d="m0 0 10 2 2 3v9l-6 6-14 1-1 11h-7l1-6 2-13 2-8 4-4zm-3 6-2 4v5l5 1 5-3 2-4-4-3z" fill="#FB508E"/>
<path transform="translate(394,380)" d="m0 0h7v2l-12 5-23 11v2l15 6 2 1v3l-15 6-17 4-12 1-13-2v-1l13-1 11-1 21-5 1-4-5-3-8-3 2-6 22-10 10-4z" fill="#FF7202"/>
<path transform="translate(580,385)" d="m0 0h21l-3 2-35 12-13 3 2-9 5-2v-2z" fill="#FB5186"/>
<path transform="translate(255,457)" d="m0 0h22l1 5-9 2-5 22-3 3-4-1 1-8 3-17-8-1v-4z" fill="#FB508E"/>
<path transform="translate(496,457)" d="m0 0h23l1 5-9 2-3 12-2 10-2 2-5-1 1-10 4-14h-7l-1-1z" fill="#FB508E"/>
<path transform="translate(727,457)" d="m0 0 5 1-1 10-2 7v7h13l1 5-2 1h-20l-1-1 1-10 4-18z" fill="#FB508E"/>
<path transform="translate(653,457)" d="m0 0 4 1-2 14-4 16h-6l-1-2 6-25z" fill="#FB508E"/>
<path transform="translate(283,427)" d="m0 0 13 1 25 1 2 1-7 3h-21l-13-1z" fill="#FF5A03"/>
<path transform="translate(495,394)" d="m0 0h15l29 1 4 2 1 6-6-5h-21l-6 1-2-1-1 2-6-2v-2l-7-1z" fill="#FF5303"/>
<path transform="translate(394,380)" d="m0 0h7v2l-12 5-23 11v3l-4-1v-3l6-4 7-2 5-5 13-5z" fill="#FF7202"/>
<path transform="translate(291,369)" d="m0 0 2 1-10 9-12 8-11 4h-7l4-2 16-7 12-8z" fill="#FB508E"/>
<path transform="translate(581,355)" d="m0 0h5l1 4h-2l-1 3-7 1-5 2v-2l-4-2 5-3z" fill="#FF7302"/>
<path transform="translate(582,360)" d="m0 0 1 3-6 5-5 2-5 3-2-2v-3h2l1-6 5 2 4-2h5z" fill="#FF5503"/>
<path transform="translate(376,390)" d="m0 0h2v2l-12 6v3l-4-1v-3l6-4z" fill="#FF5803"/>
<path transform="translate(223,361)" d="m0 0 2 1z" fill="#FF7302"/>
</svg>
