<?xml version="1.0" encoding="utf-8"?>
<!-- Generator: Adobe Illustrator 24.3.0, SVG Export Plug-In . SVG Version: 6.00 Build 0)  -->
<svg version="1.1" id="Layer_1" xmlns="http://www.w3.org/2000/svg" xmlns:xlink="http://www.w3.org/1999/xlink" x="0px" y="0px"
	 viewBox="0 0 963.7 285.32" style="enable-background:new 0 0 963.7 285.32;" xml:space="preserve">
<style type="text/css">
	.st0{fill:#1E22AA;}
	.st1{fill:none;}
	.st2{fill:#00AFD7;}
</style>
<g>
	<path class="st0" d="M222.21,116.14c-13.24-6.7-23.55-13.54-23.55-25.41c0-13.88,11.51-23.03,34.2-23.03
		c11.03,0,21.36,2.47,32.17,7.64l27.07-25.78c-17.85-10.02-37.03-15.04-58.22-15.04c-47.07,0-75.85,24.72-75.85,60.61
		c0,25.68,17.09,38.54,35.46,48.37c21.36,11.42,44.45,18.74,44.45,37.3c0,14.22-9.82,23.03-26.75,23.03
		c-21.78,0-38.41-10.91-53.9-25.85l-25,23.81c20.32,22.69,45.37,35.89,75.85,35.89c41.99,0,71.11-21.33,71.11-58.58
		C279.25,139.74,245.99,128.17,222.21,116.14z"/>
	<path class="st0" d="M292.72,234.26h40.63l26.41-128.67h-12.51c-16.37,0-30.48,11.51-33.77,27.55L292.72,234.26z"/>
	<path class="st0" d="M704.92,102.2c-17.81,0-33.43,8.05-43.13,21.86l0.8-18.47h0c-19.91,0-37.07,14-41.08,33.5l-19.54,95.17h40.63
		l14.22-70.43c3.39-16.93,15.24-29.12,29.12-29.12c10.5,0,15.24,5.08,15.24,15.58c0,2.71-0.34,6.09-1.02,9.82l-15.24,74.15h40.63
		l15.91-78.22c1.35-6.43,2.03-12.53,2.03-17.95C743.52,115.4,731.67,102.2,704.92,102.2"/>
	<path class="st1" d="M559.32,145.88c0-8.47-5.76-13.21-14.9-13.21c-15.89,0-28.05,10.33-33.59,28.08c7.58,0.47,14.58,0.7,22.75,0.7
		C548.83,161.45,559.32,155.7,559.32,145.88z"/>
	<path class="st0" d="M594.54,131.41c-4.83-17.36-22.25-29.21-45.71-29.21c-48.76,0-80.25,35.89-80.25,80.25
		c0,34.54,23.36,55.19,64.67,55.19c15.38,0,28.76-2.25,40.16-7.15l6.61-32.22c-10.58,5.79-23.86,8.55-38.99,8.55
		c-20.27,0-31.67-6.12-32.75-22.71c6.07,0.64,13.46,1.04,21.24,1.04c26.44,0,46.2-6.67,57.02-18.65c6.08-6.74,9.35-15.16,9.35-25.03
		C595.89,137.96,595.43,134.59,594.54,131.41z M533.59,161.45c-8.17,0-15.17-0.24-22.75-0.7c5.53-17.75,17.69-28.08,33.59-28.08
		c9.14,0,14.9,4.74,14.9,13.21C559.32,155.7,548.83,161.45,533.59,161.45z"/>
	<path class="st0" d="M862.19,120.02L862.19,120.02c-6.52-12.25-19.36-17.82-34.69-17.82c-39.96,0-68.4,35.22-68.4,84.31
		c0,33.18,20.99,51.13,45.37,51.13c16.92,0,29.71-6.08,39.4-18.64l0.55,15.25h35.22l4.4-33.52l19.3-95.15h-20.98
		C873.25,105.59,865.14,111.39,862.19,120.02z M818.7,205.14c-11.51,0-18.28-8.8-18.28-23.37c0-26.41,13.21-47.07,32.51-47.07
		c13.21,0,19.3,9.48,19.3,24.04C852.22,183.47,837.66,205.14,818.7,205.14z"/>
	<g>
		<path class="st0" d="M466.88,102.2c-15.25,0-33.35,6.58-45.38,28.13l1.36-24.74l0,0c-19.91,0-37.07,14-41.08,33.5l-19.54,95.17
			h40.63l11.51-54.85c5.08-24.38,15.24-37.25,39.28-37.25c3.65,0,6.63,0.32,8.03,0.66l8.3-40.45
			C469.02,102.26,467.97,102.2,466.88,102.2z"/>
	</g>
	<circle class="st0" cx="343.36" cy="66.36" r="19.61"/>
	<path class="st0" d="M222.21,116.14c-13.24-6.7-23.55-13.54-23.55-25.41c0-13.88,11.51-23.03,34.2-23.03
		c11.03,0,21.36,2.47,32.17,7.64l27.07-25.78c-17.85-10.02-37.03-15.04-58.22-15.04c-47.07,0-75.85,24.72-75.85,60.61
		c0,25.68,17.09,38.54,35.46,48.37c21.36,11.42,44.45,18.74,44.45,37.3c0,14.22-9.82,23.03-26.75,23.03
		c-21.78,0-38.41-10.91-53.9-25.85l-25,23.81c20.32,22.69,45.37,35.89,75.85,35.89c41.99,0,71.11-21.33,71.11-58.58
		C279.25,139.74,245.99,128.17,222.21,116.14z"/>
	<g>
		<path class="st2" d="M121.87,111.22c-0.7-22.6,5.36-41.41,18.18-57.11l-2.13-0.99c-11.62-4.96-20.86-2.92-27.19,0.36
			c-5.45,2.82-9.8,7.38-12.84,12.71c-21.78,38.25,2.26,82.01,2.26,82.01c-0.17-0.07-0.34-0.14-0.5-0.21
			c-18.09-7.3-37.99,5.59-39.13,25.07l-0.17,2.94c4.77-1.26,9.92-2.05,15.07-2.21c14.83-0.46,28.84,3.82,40.13,11.71l25-23.81
			C129.55,148.66,122.53,132.37,121.87,111.22z"/>
	</g>
</g>
</svg>
